<?xml version="1.0" encoding="UTF-8" standalone="no"?>
<!-- Created with Inkscape (http://www.inkscape.org/) -->

<svg width="224" height="159.28958" viewBox="0 0 224 159.28959" version="1.1" id="svg5" xmlns:inkscape="http://www.inkscape.org/namespaces/inkscape" xmlns:sodipodi="http://sodipodi.sourceforge.net/DTD/sodipodi-0.dtd" xmlns="http://www.w3.org/2000/svg" xmlns:svg="http://www.w3.org/2000/svg">
  <sodipodi:namedview id="namedview7" pagecolor="#ffffff" bordercolor="#999999" borderopacity="1" inkscape:showpageshadow="0" inkscape:pageopacity="0" inkscape:pagecheckerboard="0" inkscape:deskcolor="#d1d1d1" inkscape:document-units="px" showgrid="false" showborder="false" borderlayer="true" />
  <defs id="defs2" />
  <g inkscape:label="Warstwa 1" inkscape:groupmode="layer" id="layer1" transform="translate(-529.20581,-428.61805)">
    <g inkscape:label="Clip" id="use4256" transform="translate(1295.7216,-166.48126)">
      <g inkscape:label="Clip" id="g4309" transform="translate(40.85318,69.764661)">
        <path id="path4307" style="fill:black;fill-opacity:1;stroke:none;stroke-width:1.82436;stroke-opacity:1" d="m 435.68289,240.71953 c 14.62041,0.79031 22.29475,21.46539 28.59225,33.34533 20.15348,38.01866 30.34702,3.55563 41.8766,4.72901 24.57774,2.50131 17.50448,27.2392 28.98559,28.3047 27.02185,2.50778 42.08555,-34.62762 42.08555,-19.11562 0,62.048 -49.952,112 -112,112 -62.048,0 -112,-49.952 -112,-112 0,-31.024 26.06444,-1.02016 45.93072,-12.96014 20.87251,-12.54476 19.85,-35.20489 36.52929,-34.30328 z" sodipodi:nodetypes="asssssssa" inkscape:export-filename="clip.svg" inkscape:export-xdpi="96" inkscape:export-ydpi="96" mask="none" transform="translate(-35.82509,71.650197)" />
      </g>
    </g>
  </g>
</svg>
