<?xml version="1.0" encoding="UTF-8" standalone="no"?>
<!-- Created with Inkscape (http://www.inkscape.org/) -->

<svg
   version="1.1"
   id="svg28"
   width="51.421387"
   height="51.420929"
   viewBox="0 0 51.421386 51.420928"
   sodipodi:docname="DL_AP22-1062_Brochure_HealthcareExperts_en-EU.pdf"
   xmlns:inkscape="http://www.inkscape.org/namespaces/inkscape"
   xmlns:sodipodi="http://sodipodi.sourceforge.net/DTD/sodipodi-0.dtd"
   xmlns="http://www.w3.org/2000/svg"
   xmlns:svg="http://www.w3.org/2000/svg">
  <defs
     id="defs32">
    <clipPath
       clipPathUnits="userSpaceOnUse"
       id="clipPath2904">
      <path
         d="m 319.805,466.223 h 38.567 v 38.566 h -38.567 z"
         id="path2902" />
    </clipPath>
  </defs>
  <sodipodi:namedview
     id="namedview30"
     pagecolor="#ffffff"
     bordercolor="#cccccc"
     borderopacity="1"
     inkscape:showpageshadow="0"
     inkscape:pageopacity="1"
     inkscape:pagecheckerboard="0"
     inkscape:deskcolor="#d1d1d1"
     showgrid="false" />
  <g
     id="g2602"
     inkscape:groupmode="layer"
     inkscape:label="Page 8"
     transform="matrix(1.3333333,0,0,-1.3333333,-423.33687,690.11209)"
     style="display:inline">
    <g
       id="g2898"
       transform="translate(-2.3026691,12.795099)"
       inkscape:export-filename="barrier/cleaning.webp"
       inkscape:export-xdpi="97.54818"
       inkscape:export-ydpi="97.54818">
      <g
         id="g2900"
         clip-path="url(#clipPath2904)">
        <path
           d="m 339.0883,502.3863 c -9.308,0 -16.88,-7.572 -16.88,-16.88 0,-9.308 7.572,-16.88 16.88,-16.88 9.308,0 16.88,7.572 16.88,16.88 0,9.308 -7.572,16.88 -16.88,16.88 m 0,-36.163 c -10.633,0 -19.283,8.65 -19.283,19.283 0,10.633 8.65,19.283 19.283,19.283 10.633,0 19.283,-8.65 19.283,-19.283 0,-10.633 -8.65,-19.283 -19.283,-19.283"
           style="fill:#22d3ee;fill-opacity:1;fill-rule:nonzero;stroke:none;stroke-opacity:1"
           id="path2908" />
        <path
           d="m 348.3084,489.7422 -1.663,-8.162 c 0,-0.677 -0.549,-1.225 -1.225,-1.225 h -12.516 c -0.677,0 -1.225,0.548 -1.225,1.225 l -1.663,8.162"
           style="fill:none;stroke:#22d3ee;stroke-width:0.844;stroke-linecap:round;stroke-linejoin:miter;stroke-miterlimit:10;stroke-dasharray:none;stroke-opacity:1"
           id="path2912" />
        <path
           d="m 330.8032,487.4866 h 16.951"
           style="fill:none;stroke:#22d3ee;stroke-width:0.844;stroke-linecap:butt;stroke-linejoin:miter;stroke-miterlimit:10;stroke-dasharray:none;stroke-opacity:1"
           id="path2916" />
        <path
           d="m 336.4732,484.8163 h -3.232 v 1.393 h 3.232 z"
           style="fill:none;stroke:#22d3ee;stroke-width:0.447;stroke-linecap:butt;stroke-linejoin:miter;stroke-miterlimit:10;stroke-dasharray:none;stroke-opacity:1"
           id="path2920" />
        <path
           d="m 340.8903,484.8163 h -3.232 v 1.393 h 3.232 z"
           style="fill:none;stroke:#22d3ee;stroke-width:0.447;stroke-linecap:butt;stroke-linejoin:miter;stroke-miterlimit:10;stroke-dasharray:none;stroke-opacity:1"
           id="path2924" />
        <path
           d="m 345.1995,484.8163 h -3.232 v 1.393 h 3.232 z"
           style="fill:none;stroke:#22d3ee;stroke-width:0.447;stroke-linecap:butt;stroke-linejoin:miter;stroke-miterlimit:10;stroke-dasharray:none;stroke-opacity:1"
           id="path2928" />
        <path
           d="m 336.4732,482.0299 h -3.232 v 1.393 h 3.232 z"
           style="fill:none;stroke:#22d3ee;stroke-width:0.447;stroke-linecap:butt;stroke-linejoin:miter;stroke-miterlimit:10;stroke-dasharray:none;stroke-opacity:1"
           id="path2932" />
        <path
           d="m 340.8903,482.0299 h -3.232 v 1.393 h 3.232 z"
           style="fill:none;stroke:#22d3ee;stroke-width:0.447;stroke-linecap:butt;stroke-linejoin:miter;stroke-miterlimit:10;stroke-dasharray:none;stroke-opacity:1"
           id="path2936" />
        <path
           d="m 345.1995,482.0299 h -3.232 v 1.393 h 3.232 z"
           style="fill:none;stroke:#22d3ee;stroke-width:0.447;stroke-linecap:butt;stroke-linejoin:miter;stroke-miterlimit:10;stroke-dasharray:none;stroke-opacity:1"
           id="path2940" />
      </g>
    </g>
  </g>
</svg>
