<?xml version="1.0" encoding="UTF-8" standalone="no"?>
<!-- Created with Inkscape (http://www.inkscape.org/) -->

<svg
   version="1.1"
   id="svg28"
   width="51.787598"
   height="51.787994"
   viewBox="0 0 51.787597 51.787993"
   xmlns="http://www.w3.org/2000/svg"
   xmlns:svg="http://www.w3.org/2000/svg">
  <defs
     id="defs32">
    <clipPath
       clipPathUnits="userSpaceOnUse"
       id="clipPath2812">
      <path
         d="m 56.693,558.426 h 39.686 v 39.685 H 56.693 Z"
         id="path2810" />
    </clipPath>
    <clipPath
       clipPathUnits="userSpaceOnUse"
       id="clipPath2836">
      <path
         d="m 56.693,558.426 h 39.686 v 39.685 H 56.693 Z"
         id="path2834" />
    </clipPath>
  </defs>
  <g
     id="g2602"
     transform="matrix(1.3333333,0,0,-1.3333333,-60.431104,818.69053)"
     style="display:inline">
    <g
       id="g104163"
       transform="translate(-6.7918045,18.505934)">
      <g
         id="g104133"
         style="display:inline"
         transform="translate(-4.9997251,-2.1764251)">
        <g
           id="g2808"
           clip-path="url(#clipPath2812)"
           style="display:inline;stroke:#22d3ee;stroke-opacity:1">
          <g
             id="g2814"
             transform="translate(94.6892,578.2679)"
             style="stroke:#22d3ee;stroke-opacity:1">
            <path
               d="m 0,0 c 0,-10.026 -8.128,-18.154 -18.154,-18.154 -10.026,0 -18.154,8.128 -18.154,18.154 0,10.026 8.128,18.154 18.154,18.154 C -8.128,18.154 0,10.026 0,0 Z"
               style="fill:none;stroke:#22d3ee;stroke-width:2.533;stroke-linecap:butt;stroke-linejoin:miter;stroke-miterlimit:10;stroke-dasharray:none;stroke-opacity:1"
               id="path2816" />
          </g>
          <g
             id="g2818"
             transform="translate(74.5838,571.1042)"
             style="stroke:#22d3ee;stroke-opacity:1">
            <path
               d="m 0,0 v 0 c -0.406,0 -0.739,0.332 -0.739,0.739 0,0.406 0.333,0.739 0.739,0.739 0.406,0 0.739,-0.333 0.739,-0.739 C 0.739,0.332 0.406,0 0,0 Z"
               style="fill:none;stroke:#22d3ee;stroke-width:0.633;stroke-linecap:butt;stroke-linejoin:miter;stroke-miterlimit:10;stroke-dasharray:none;stroke-opacity:1"
               id="path2820" />
          </g>
          <g
             id="g2822"
             transform="translate(80.3888,570.9987)"
             style="stroke:#22d3ee;stroke-opacity:1">
            <path
               d="m 0,0 v 0 c -0.406,0 -0.739,0.332 -0.739,0.739 0,0.406 0.333,0.739 0.739,0.739 0.406,0 0.739,-0.333 0.739,-0.739 C 0.739,0.332 0.406,0 0,0 Z"
               style="fill:none;stroke:#22d3ee;stroke-width:0.633;stroke-linecap:butt;stroke-linejoin:miter;stroke-miterlimit:10;stroke-dasharray:none;stroke-opacity:1"
               id="path2824" />
          </g>
        </g>
      </g>
      <g
         id="g2826"
         transform="translate(68.000976,571.67198)">
        <path
           d="M 0,0 H 8.444"
           style="fill:none;stroke:#22d3ee;stroke-width:0.633;stroke-linecap:round;stroke-linejoin:miter;stroke-miterlimit:10;stroke-dasharray:none;stroke-opacity:1"
           id="path2828" />
      </g>
      <g
         id="g2830"
         transform="translate(-4.9997238,-2.176424)"
         style="stroke:#22d3ee;stroke-opacity:1">
        <g
           id="g2832"
           clip-path="url(#clipPath2836)"
           style="stroke:#22d3ee;stroke-opacity:1">
          <g
             id="g2838"
             transform="translate(72.4719,583.3992)"
             style="stroke:#22d3ee;stroke-opacity:1">
            <path
               d="m 0,0 0.211,-7.001 c 0,-0.68 0.551,-1.231 1.232,-1.231 h 6.825 c 0.68,0 1.231,0.551 1.231,1.231 L 9.71,0 Z"
               style="fill:none;stroke:#22d3ee;stroke-width:0.792;stroke-linecap:round;stroke-linejoin:miter;stroke-miterlimit:10;stroke-dasharray:none;stroke-opacity:1"
               id="path2840" />
          </g>
        </g>
      </g>
      <g
         id="g2842"
         transform="translate(69.583076,581.01168)"
         style="stroke:#22d3ee;stroke-opacity:1">
        <path
           d="M 0,0 V -8.021"
           style="fill:none;stroke:#22d3ee;stroke-width:0.792;stroke-linecap:round;stroke-linejoin:miter;stroke-miterlimit:10;stroke-dasharray:none;stroke-opacity:1"
           id="path2844" />
      </g>
      <g
         id="g2846"
         transform="translate(75.071476,581.22278)"
         style="stroke:#22d3ee;stroke-opacity:1">
        <path
           d="M 0,0 V -7.81"
           style="fill:none;stroke:#22d3ee;stroke-width:0.792;stroke-linecap:round;stroke-linejoin:miter;stroke-miterlimit:10;stroke-dasharray:none;stroke-opacity:1"
           id="path2848" />
      </g>
      <g
         id="g2850"
         transform="translate(64.200276,583.36058)"
         style="stroke:#22d3ee;stroke-opacity:1">
        <path
           d="M 0,0 H 2.582 L 3.228,-2.475"
           style="fill:none;stroke:#22d3ee;stroke-width:0.792;stroke-linecap:round;stroke-linejoin:miter;stroke-miterlimit:10;stroke-dasharray:none;stroke-opacity:1"
           id="path2852" />
      </g>
    </g>
  </g>
</svg>
