<?xml version="1.0" encoding="UTF-8" standalone="no"?>
<!-- Created with Inkscape (http://www.inkscape.org/) -->

<svg
   version="1.1"
   id="svg28"
   width="62.373535"
   height="62.373322"
   viewBox="0 0 62.373535 62.37332"
   xmlns="http://www.w3.org/2000/svg"
   xmlns:svg="http://www.w3.org/2000/svg">
  <defs
     id="defs32">
    <clipPath
       clipPathUnits="userSpaceOnUse"
       id="clipPath2152">
      <path
         d="M 0,0 H 595.276 V 841.89 H 0 Z"
         id="path2150" />
    </clipPath>
  </defs>
  <g
     id="g1972"
     transform="matrix(1.3333333,0,0,-1.3333333,-68.753227,687.40274)"
     style="display:inline">
    <g
       id="g2146"
       style="display:inline;fill:#22d3ee;fill-opacity:1"
       transform="translate(-9.0552176,7.3237815)">
      <g
         id="g2148"
         clip-path="url(#clipPath2152)"
         style="fill:#22d3ee;fill-opacity:1">
        <path
           d="m 84.0102,461.4483 c -12.898,0 -23.39,10.492 -23.39,23.39 0,12.897 10.492,23.39 23.39,23.39 12.898,0 23.39,-10.493 23.39,-23.39 0,-12.898 -10.492,-23.39 -23.39,-23.39 m 0,43.865 c -11.29,0 -20.475,-9.185 -20.475,-20.475 0,-11.29 9.185,-20.475 20.475,-20.475 11.29,0 20.475,9.185 20.475,20.475 0,11.29 -9.185,20.475 -20.475,20.475"
           style="fill:#22d3ee;fill-opacity:1;fill-rule:nonzero;stroke:none"
           id="path2160" />
        <path
           d="m 85.5869,486.2524 -7.679,-10.684 c -5.007,3.333 -3.299,9.811 -1.272,12.106 2.332,2.828 7.591,6.094 14.491,7.947 0.6,-5.444 1.36,-10.495 0.377,-15.138 -0.798,-5.046 -6.686,-8.637 -11.631,-6.089 z"
           style="display:inline;fill:#22d3ee;fill-opacity:1;stroke:#67e8f9;stroke-width:2;stroke-linecap:butt;stroke-linejoin:miter;stroke-miterlimit:10;stroke-dasharray:none;stroke-opacity:1"
           id="path2164" />
      </g>
    </g>
  </g>
</svg>
