<?xml version="1.0" encoding="UTF-8" standalone="no"?>
<!-- Created with Inkscape (http://www.inkscape.org/) -->

<svg
   version="1.1"
   id="svg28"
   width="62.373535"
   height="62.373352"
   viewBox="0 0 62.373535 62.373351"
   xmlns="http://www.w3.org/2000/svg"
   xmlns:svg="http://www.w3.org/2000/svg">
  <defs
     id="defs32">
    <clipPath
       clipPathUnits="userSpaceOnUse"
       id="clipPath53444">
      <g
         id="g53448"
         transform="translate(-1.2294532e-5)">
        <path
           d="M 0,0 H 595.276 V 841.89 H 0 Z"
           id="path53446" />
      </g>
    </clipPath>
    <clipPath
       clipPathUnits="userSpaceOnUse"
       id="clipPath53450">
      <g
         id="g53454"
         transform="translate(-1.2294532e-5)">
        <path
           d="M 0,0 H 595.276 V 841.89 H 0 Z"
           id="path53452" />
      </g>
    </clipPath>
  </defs>
  <g
     id="g1972"
     transform="matrix(1.3333333,0,0,-1.3333333,-301.67462,477.66721)"
     style="display:inline">
    <g
       id="g2060"
       transform="translate(-91.78124,-260.05658)">
      <g
         id="g53464"
         style="fill:#22d3ee;fill-opacity:1">
        <path
           d="m 341.4272,571.527 c -12.898,0 -23.39,10.492 -23.39,23.39 0,12.897 10.492,23.39 23.39,23.39 12.898,0 23.39,-10.493 23.39,-23.39 0,-12.898 -10.492,-23.39 -23.39,-23.39 m 0,43.865 c -11.29,0 -20.475,-9.185 -20.475,-20.475 0,-11.29 9.185,-20.475 20.475,-20.475 11.29,0 20.475,9.185 20.475,20.475 0,11.29 -9.185,20.475 -20.475,20.475"
           style="fill:#22d3ee;fill-opacity:1;fill-rule:nonzero;stroke:none"
           id="path2074"
           clip-path="url(#clipPath53450)" />
        <path
           d="m 347.9053,597.0004 c -1.216,0.235 -2.592,0.505 -4.003,0.828 -0.785,0.181 -2.512,0.93 -3.803,1.524 0.719,0.506 1.594,1.115 2.008,1.378 0.771,0.492 2.378,1.516 1.346,3.181 -0.772,1.244 -2.11,1.045 -2.66,0.786 -0.033,-0.012 -3.295,-1.269 -6.092,-2.219 -1.568,-0.534 -2.766,-0.719 -3.485,-0.784 0.078,0.863 0.1,1.438 0.104,1.53 0.011,0.353 -0.209,0.673 -0.544,0.786 l -8.684,2.939 -0.512,-1.516 8.112,-2.746 c -0.182,-2.902 -1.071,-9.14 -3.621,-11.092 l -0.636,-0.486 0.973,-1.271 0.636,0.486 c 0.279,0.214 0.539,0.464 0.783,0.74 0.774,-0.995 2.668,-3.125 5.451,-4.312 2.332,-0.994 3.997,-1.293 5.098,-1.488 0.517,-0.093 0.924,-0.165 1.139,-0.265 0.166,-0.079 0.421,-0.22 0.733,-0.391 1.715,-0.941 3.262,-1.723 4.397,-1.723 0.476,0 0.879,0.137 1.192,0.458 0.233,0.24 0.343,0.563 0.307,0.909 -0.058,0.549 -0.607,1.249 -1.361,1.969 5.66,-1.566 6.119,-0.343 6.289,0.114 0.392,1.044 -0.647,1.896 -2.65,2.878 2.554,-0.484 4.127,-0.44 4.535,0.765 0.11,0.324 0.078,0.676 -0.09,0.994 -0.244,0.46 -0.809,0.867 -1.633,1.255 1.022,0.032 1.853,0.204 2.392,0.589 0.394,0.282 0.639,0.669 0.705,1.121 0.005,0.032 0.007,0.066 0.007,0.1 0.035,1.703 -2.399,2.178 -6.433,2.963 m -3.364,-2.353 c -0.725,0.136 -1.25,0.234 -1.569,0.269 -0.311,0.033 -0.613,-0.115 -0.773,-0.384 -0.161,-0.268 -0.15,-0.607 0.025,-0.863 0.266,-0.387 0.674,-0.523 3.1,-1.193 1.471,-0.405 4.651,-1.283 5.772,-1.961 -1.194,-0.067 -4.083,0.625 -5.578,0.986 -2.408,0.582 -3.268,0.773 -3.814,0.543 -0.205,-0.085 -0.365,-0.254 -0.442,-0.463 -0.076,-0.209 -0.061,-0.441 0.04,-0.639 0.244,-0.476 0.798,-0.744 3.272,-1.779 1.227,-0.515 3.533,-1.481 4.539,-2.154 -1.514,0.052 -5.132,1.04 -8.193,2.142 -0.38,0.139 -0.802,-0.031 -0.985,-0.392 -0.182,-0.36 -0.066,-0.8 0.269,-1.025 1.722,-1.152 3.324,-2.442 4.011,-3.198 -0.628,0.16 -1.699,0.653 -3.197,1.474 -0.35,0.193 -0.64,0.351 -0.825,0.436 -0.406,0.192 -0.904,0.28 -1.536,0.394 -1.092,0.194 -2.587,0.46 -4.75,1.383 -2.969,1.267 -4.856,3.854 -5.11,4.216 1.29,2.257 1.925,5.337 2.235,7.634 0.791,0.047 2.24,0.228 4.185,0.89 2.827,0.961 6.118,2.229 6.201,2.263 0.075,0.033 0.458,0.19 0.675,-0.159 0.131,-0.215 0.198,-0.321 -0.857,-0.994 -0.788,-0.502 -3.087,-2.141 -3.185,-2.21 -0.229,-0.163 -0.355,-0.437 -0.333,-0.719 0.024,-0.28 0.194,-0.528 0.449,-0.652 0.157,-0.077 3.883,-1.879 5.376,-2.223 1.436,-0.331 2.828,-0.602 4.056,-0.841 2.028,-0.394 4.521,-0.88 5.076,-1.35 -0.368,-0.328 -1.98,-0.585 -8.134,0.569"
           style="fill:#22d3ee;fill-opacity:1;fill-rule:nonzero;stroke:none"
           id="path2078"
           clip-path="url(#clipPath53444)" />
      </g>
    </g>
  </g>
</svg>
