<?xml version="1.0" encoding="UTF-8" standalone="no"?>
<!-- Created with Inkscape (http://www.inkscape.org/) -->

<svg
   version="1.1"
   id="svg28"
   width="52.623535"
   height="52.472412"
   viewBox="0 0 52.623535 52.472411"
   sodipodi:docname="DL_AP22-1062_Brochure_HealthcareExperts_en-EU.pdf"
   xmlns:inkscape="http://www.inkscape.org/namespaces/inkscape"
   xmlns:sodipodi="http://sodipodi.sourceforge.net/DTD/sodipodi-0.dtd"
   xmlns="http://www.w3.org/2000/svg"
   xmlns:svg="http://www.w3.org/2000/svg">
  <defs
     id="defs32">
    <clipPath
       clipPathUnits="userSpaceOnUse"
       id="clipPath2880">
      <path
         d="m 318.898,559.742 h 39.685 v 39.685 h -39.685 z"
         id="path2878" />
    </clipPath>
  </defs>
  <sodipodi:namedview
     id="namedview30"
     pagecolor="#ffffff"
     bordercolor="#cccccc"
     borderopacity="1"
     inkscape:showpageshadow="0"
     inkscape:pageopacity="1"
     inkscape:pagecheckerboard="0"
     inkscape:deskcolor="#d1d1d1"
     showgrid="false" />
  <g
     id="g2602"
     inkscape:groupmode="layer"
     inkscape:label="Page 8"
     transform="matrix(1.3333333,0,0,-1.3333333,-610.23482,894.97907)"
     style="display:inline">
    <g
       id="g115274"
       transform="translate(138.77827,58.917392)"
       inkscape:export-filename="barrier/finishing.webp"
       inkscape:export-xdpi="97.54818"
       inkscape:export-ydpi="97.54818">
      <g
         id="g2874">
        <g
           id="g2876"
           clip-path="url(#clipPath2880)"
           transform="translate(0,13.220632)">
          <path
             d="m 357.0621,579.1128 c 0,-10.317 -8.364,-18.68 -18.68,-18.68 -10.317,0 -18.68,8.363 -18.68,18.68 0,10.317 8.363,18.68 18.68,18.68 10.316,0 18.68,-8.363 18.68,-18.68 z"
             style="fill:none;stroke:#22d3ee;stroke-width:2.607;stroke-linecap:butt;stroke-linejoin:miter;stroke-miterlimit:10;stroke-dasharray:none;stroke-opacity:1"
             id="path2884" />
          <path
             d="m 343.7521,584.4669 0.002,-1.919 -10.75,-0.011 -0.002,1.92 -3.665,-0.004 0.009,-9.756 c 0.001,-0.52 0.424,-0.942 0.944,-0.942 l 1.779,0.002 c 0.519,0 0.943,0.424 0.943,0.944 l -0.004,3.147 10.75,0.011 0.004,-3.148 c 0,-0.52 0.423,-0.942 0.943,-0.942 l 1.78,0.002 c 0.519,0 0.942,0.424 0.941,0.944 l -0.009,9.756 z m -11.28,-9.767 c 10e-4,-0.223 -0.181,-0.405 -0.404,-0.405 l -1.778,-0.002 c -0.223,0 -0.405,0.181 -0.405,0.404 l -0.009,9.218 2.587,0.002 z m 11.284,5.59 -10.75,-0.011 -10e-4,1.563 10.75,0.011 z m -10.749,-0.705 10.75,0.01 0.001,-1.042 -10.75,-0.01 z m 13.88,-4.871 c 0.001,-0.223 -0.181,-0.405 -0.403,-0.405 l -1.779,-0.002 c -0.224,0 -0.404,0.181 -0.405,0.405 l -0.008,9.217 2.587,0.002 z"
             style="fill:#22d3ee;fill-opacity:1;fill-rule:nonzero;stroke:none;stroke-opacity:1"
             id="path2888" />
          <path
             d="m 343.7521,584.4669 0.002,-1.919 -10.75,-0.011 -0.002,1.92 -3.665,-0.004 0.009,-9.756 c 0.001,-0.52 0.424,-0.942 0.944,-0.942 l 1.779,0.002 c 0.519,0 0.943,0.424 0.943,0.944 l -0.004,3.147 10.75,0.011 0.004,-3.148 c 0,-0.52 0.423,-0.942 0.943,-0.942 l 1.78,0.002 c 0.519,0 0.942,0.424 0.941,0.944 l -0.009,9.756 z m -11.28,-9.767 c 10e-4,-0.223 -0.181,-0.405 -0.404,-0.405 l -1.778,-0.002 c -0.223,0 -0.405,0.181 -0.405,0.404 l -0.009,9.218 2.587,0.002 z m 11.284,5.59 -10.75,-0.011 -10e-4,1.563 10.75,0.011 z m -10.749,-0.705 10.75,0.01 0.001,-1.042 -10.75,-0.01 z m 13.88,-4.871 c 0.001,-0.223 -0.181,-0.405 -0.403,-0.405 l -1.779,-0.002 c -0.224,0 -0.404,0.181 -0.405,0.405 l -0.008,9.217 2.587,0.002 z"
             style="fill:none;stroke:#22d3ee;stroke-width:0.195;stroke-linecap:butt;stroke-linejoin:miter;stroke-miterlimit:10;stroke-dasharray:none;stroke-opacity:1"
             id="path2892" />
          <path
             d="m 330.3893,582.5355 1.564,0.002 c 0.143,0 0.259,0.116 0.259,0.26 0,0.144 -0.116,0.261 -0.26,0.261 l -1.563,-0.002 c -0.144,0 -0.261,-0.117 -0.261,-0.261 0,-0.144 0.117,-0.26 0.261,-0.26"
             style="fill:#22d3ee;fill-opacity:1;fill-rule:nonzero;stroke:#22d3ee;stroke-opacity:1"
             id="path2896" />
        </g>
      </g>
    </g>
  </g>
</svg>
