<?xml version="1.0" encoding="UTF-8" standalone="no"?>
<!-- Created with Inkscape (http://www.inkscape.org/) -->

<svg
   version="1.1"
   id="svg28"
   width="62.373047"
   height="62.373352"
   viewBox="0 0 62.373046 62.373351"
   xmlns="http://www.w3.org/2000/svg"
   xmlns:svg="http://www.w3.org/2000/svg">
  <defs
     id="defs32">
    <clipPath
       clipPathUnits="userSpaceOnUse"
       id="clipPath48624">
      <g
         id="g48630"
         transform="translate(-2.9235889e-5,-1.399498e-5)">
        <g
           id="g48628"
           transform="translate(-3e-5)">
          <path
             d="M 0,0 H 595.276 V 841.89 H 0 Z"
             id="path48626" />
        </g>
      </g>
    </clipPath>
    <clipPath
       clipPathUnits="userSpaceOnUse"
       id="clipPath48639">
      <g
         id="g48645"
         transform="translate(-2.9235889e-5,-1.399498e-5)">
        <g
           id="g48643"
           transform="translate(-3e-5)">
          <path
             d="M 0,0 H 595.276 V 841.89 H 0 Z"
             id="path48641" />
        </g>
      </g>
    </clipPath>
  </defs>
  <g
     id="g1972"
     transform="matrix(1.3333333,0,0,-1.3333333,-185.22881,473.88168)"
     style="display:inline">
    <g
       id="g2180"
       transform="translate(-169.43555,-159.79919)">
      <g
         id="g49069">
        <path
           d="m 341.4272,469.3027 c -12.898,0 -23.39,10.492 -23.39,23.39 0,12.897 10.492,23.39 23.39,23.39 12.898,0 23.39,-10.493 23.39,-23.39 0,-12.898 -10.492,-23.39 -23.39,-23.39 m 0,43.865 c -11.29,0 -20.475,-9.185 -20.475,-20.475 0,-11.29 9.185,-20.475 20.475,-20.475 11.29,0 20.475,9.185 20.475,20.475 0,11.29 -9.185,20.475 -20.475,20.475"
           style="display:inline;fill:#22d3ee;fill-opacity:1;fill-rule:nonzero;stroke:none"
           id="path2194"
           clip-path="url(#clipPath48639)"
           transform="translate(-9.6801831,-0.87223896)" />
        <path
           d="m 347.3292,506.0502 c -2.709,0 -5.007,-1.87 -5.607,-4.446 -1.074,-0.442 -2.374,-0.949 -3.64,-1.35 -1.074,-0.339 -2.131,-0.634 -3.154,-0.918 -2.204,-0.614 -3.945,-1.097 -4.904,-1.762 -3.33,-2.304 -7.923,-12.517 -8.117,-12.951 l -0.327,-0.73 1.462,-0.654 0.327,0.73 c 1.27,2.841 5.106,10.585 7.567,12.29 0.736,0.51 2.527,1.008 4.422,1.535 1.035,0.288 2.106,0.587 3.206,0.935 1.263,0.399 2.546,0.896 3.62,1.335 l 0.976,0.404 c 0.196,0.083 0.382,0.162 0.548,0.232 0.392,0.166 0.762,0.323 0.927,0.381 1.156,0.482 2.074,0.087 2.267,-0.367 0.184,-0.437 -0.297,-1.196 -1.8,-1.84 l -1.451,-0.649 -0.435,-0.194 -3.985,-1.781 c -1.614,0.042 -3.153,-0.101 -3.438,-0.129 l -0.796,-0.079 0.158,-1.591 0.795,0.077 c 0.878,0.087 2.113,0.148 3.256,0.12 l 0.338,-0.011 c 0.99,-0.041 1.874,-0.156 2.337,-0.393 0.765,-0.391 0.927,-0.933 0.904,-1.368 -1.519,0.675 -3.49,0.571 -3.783,0.55 l -0.797,-0.055 0.109,-1.594 0.798,0.054 c 0.972,0.068 3.156,-0.076 3.721,-0.931 0.13,-0.197 0.164,-0.456 0.115,-0.766 -1.083,0.524 -2.396,0.621 -3.008,0.445 l -0.762,-0.217 0.436,-1.523 0.766,0.201 c 0.308,0.082 1.277,-0.05 1.956,-0.399 l -0.083,-0.16 0.679,-0.346 c 0.01,-0.016 0.027,-0.03 0.035,-0.046 0.138,-0.289 0.329,-1.418 -2.999,-3.897 -0.062,-0.033 -0.128,-0.066 -0.192,-0.1 l -0.956,1.206 -0.627,-0.497 c -0.306,-0.242 -0.586,-0.516 -0.862,-0.803 l -0.09,0.08 -1.069,-1.189 0.07,-0.063 c -0.944,-1.002 -2.029,-1.97 -3.913,-2.543 l -0.765,-0.233 0.467,-1.531 0.764,0.233 c 2.411,0.734 3.766,2.058 4.828,3.209 0.129,-0.022 0.262,-0.035 0.398,-0.035 1.094,0 2.324,0.638 2.782,0.9 0.027,0.016 0.054,0.034 0.079,0.053 3.128,2.319 4.312,4.313 3.516,5.925 -0.033,0.069 -0.076,0.132 -0.115,0.198 0.426,1.082 0.39,2.016 -0.115,2.781 0.427,1.121 0.339,2.917 -1.56,3.886 -0.118,0.061 -0.248,0.114 -0.389,0.164 l 0.983,0.438 c 1.081,-1.114 2.554,-1.747 4.127,-1.747 3.177,0 5.763,2.585 5.763,5.764 0,3.177 -2.586,5.762 -5.763,5.762 m 0,-9.925 c -0.93,0 -1.812,0.308 -2.53,0.86 l 0.946,0.422 c 2.682,1.15 3.093,2.836 2.631,3.929 -0.525,1.242 -2.341,2.063 -4.302,1.242 -0.07,-0.023 -0.168,-0.061 -0.292,-0.111 0.735,1.196 2.055,1.984 3.547,1.984 2.296,0 4.163,-1.869 4.163,-4.163 0,-2.296 -1.867,-4.163 -4.163,-4.163"
           style="fill:#22d3ee;fill-opacity:1;fill-rule:nonzero;stroke:none"
           id="path2198"
           clip-path="url(#clipPath48624)"
           transform="translate(-9.6801831,-0.87223896)" />
      </g>
    </g>
  </g>
</svg>
